<svg id="_Layer_" data-name="&lt;Layer&gt;" xmlns="http://www.w3.org/2000/svg" viewBox="0 0 920.97 617.14"><defs><style>.cls-1{fill:#8e8e8e;}</style></defs><title>frij</title><path class="cls-1" d="M900.13,242.72c-14.6,72.85-45.4,131.69-99.86,190.8C730.8,508.91,637.43,558.81,537.36,574A452.3,452.3,0,0,1,469.64,579c-50,0-103.21-7.71-153.86-22.3-51.55-14.86-100.72-36.95-142.19-63.89-27.05-17.57-66.07-48.3-98.34-94.9-33-47.68-52.07-101.76-56.61-160.73A217,217,0,0,1,53.33,102c24.53-37.39,58.46-62.86,93.08-69.88A164.68,164.68,0,0,1,178.93,29c48.57,0,102.84,19.62,165.92,60,46.48,29.74,82.91,48.17,120.86,48.17,27.1,0,54.45-9.85,83.62-30.1,5.69-4,11.44-8.12,17.52-12.54,37.84-27.47,84.94-61.66,151-61.66A206.61,206.61,0,0,1,747.34,35a242.72,242.72,0,0,1,30.57,6.5C828,55.47,865.34,85.64,886,128.75,902.58,163.29,907.72,204.83,900.13,242.72Z"/></svg>