<svg id="Capa_1" data-name="Capa 1" xmlns="http://www.w3.org/2000/svg" viewBox="0 0 332.04 376.79"><defs><style>.cls-1{fill:none;}.cls-2{fill:#ccc;}.cls-3{fill:#fff;}</style></defs><title>html</title><path class="cls-1" d="M357,525.8c4.59-1.19,6.7-3,7.09-8.29,1.82-24.07,4.26-48.1,6.5-72.14.68-7.27.73-7.28-6.49-7.29L289.64,438V543.58c4.81-.1,9.26-2.39,13.83-3.53C321.37,535.57,339.11,530.44,357,525.8Z" transform="translate(-123.75 -236.39)"/><path class="cls-1" d="M196.39,310.58c1.61,18.75,3.44,37.48,4.88,56.24.38,4.9,3.38,4.48,6.57,4.47q40.91-.06,81.8-.12V303.4l-86.73,0C195.86,303.35,195.77,303.37,196.39,310.58Z" transform="translate(-123.75 -236.39)"/><path class="cls-2" d="M285.51,543.1q-32.49-8.82-65-17.57c-3.3-.89-5-2.59-5.29-6.2-1.19-14.27-2.84-28.5-3.87-42.78-.31-4.35-1.71-5.63-6-5.59-18.32.21-36.64.1-55,.1-6.64,0-6.62,0-6,6.74,1.7,18.9,3.33,37.82,5.06,56.72,1.12,12.27,2.43,24.53,3.49,36.8.27,3.15,1.63,4.65,4.65,5.47,16.36,4.47,32.67,9.11,49,13.67,23.06,6.43,46.09,13,69.23,19.15,4.55,1.21,9,3.72,13.82,3.57v-69.6A14.46,14.46,0,0,1,285.51,543.1Z" transform="translate(-123.75 -236.39)"/><path class="cls-2" d="M132.58,236.52c-2,0-4,0-6,0s-3.3.68-2.5,3a1.49,1.49,0,0,0,.1,1.94c-.85,2.3-.22,4.63,0,6.91q4.8,54.24,9.72,108.48c2.23,25.05,4.49,50.09,6.51,75.16.38,4.67,2.11,6,6.78,6q71.23-.09,142.46,0V371.17q-40.9,0-81.8.12c-3.19,0-6.19.43-6.57-4.47-1.44-18.76-3.27-37.49-4.88-56.24-.62-7.21-.53-7.23,6.52-7.22l86.73,0V236.46Z" transform="translate(-123.75 -236.39)"/><path class="cls-3" d="M448.41,236.39l-158.77.07V303.4l152.14.08c1.34,0,2.67-.08,4,0,3.36.22,4.65-1.34,4.93-4.67,1.52-18.26,3.26-36.49,4.83-54.74C456.2,236.41,456.1,236.39,448.41,236.39Z" transform="translate(-123.75 -236.39)"/><path class="cls-3" d="M364.07,438.08c7.22,0,7.17,0,6.49,7.29-2.24,24-4.68,48.07-6.5,72.14-.39,5.28-2.5,7.1-7.09,8.29-17.86,4.64-35.6,9.77-53.5,14.25-4.57,1.14-9,3.43-13.83,3.53v69.6a12.48,12.48,0,0,0,2.6-.35c6.94-1.72,13.75-3.91,20.63-5.83q24.5-6.82,49-13.6c19.71-5.45,39.4-11,59.15-16.26,3.94-1.06,5-3.16,5.32-7,1.56-19.92,3.43-39.81,5.21-59.71q6-66.66,12.07-133.31c.41-4.44-.43-6.09-5.41-6.07-46,.2-92,.11-137.93.13H289.64V438Z" transform="translate(-123.75 -236.39)"/></svg>