<svg xmlns="http://www.w3.org/2000/svg" viewBox="0 0 390.25 500.51"><defs><style>.cls-1{fill:#f2c5c6;}.cls-2{fill:#ea8283;}.cls-3{fill:none;stroke:#261616;stroke-linecap:round;stroke-linejoin:round;stroke-width:1.03px;}.cls-4{fill:#261616;}.cls-5{fill:#fff;}</style></defs><title>avatar</title><g id="OBJECTS"><polygon class="cls-1" points="165.4 293.86 157.31 396.1 240.39 396.1 228.68 292.57 165.4 293.86"/><polygon class="cls-2" points="164.86 301.34 233.04 334.93 228.68 292.57 164.86 301.34"/><polygon class="cls-3" points="165.4 293.86 157.31 396.1 240.39 396.1 228.68 292.57 165.4 293.86"/><circle class="cls-1" cx="152.27" cy="219.23" r="26.64" transform="translate(-150.86 317.28) rotate(-76.77)"/><circle class="cls-3" cx="152.27" cy="219.23" r="26.64" transform="translate(-150.86 317.28) rotate(-76.77)"/><path class="cls-3" d="M142.83,215.49s14.63-.07,23.37,11.73" transform="translate(-54.87 0)"/><circle class="cls-1" cx="353.4" cy="219.23" r="26.64" transform="translate(-95.67 86.71) rotate(-13.23)"/><circle class="cls-3" cx="353.4" cy="219.23" r="26.64" transform="translate(-95.67 86.71) rotate(-13.23)"/><path class="cls-3" d="M362.42,215.49s-14.62-.07-23.36,11.73" transform="translate(-54.87 0)"/><path class="cls-4" d="M361.77,150.54c0,60.39-45.61,113.09-109.12,113.09s-112.06-52.7-112.06-113.09S189.14,41.19,252.65,41.19,361.77,90.15,361.77,150.54Z" transform="translate(-54.87 0)"/><path class="cls-1" d="M155.46,137.44s-9.72,167.8,94.08,169.93c112.23,2.31,101.11-169.93,101.11-169.93s-.64-78-98.47-78C162.5,59.48,155.46,137.44,155.46,137.44Z" transform="translate(-54.87 0)"/><path class="cls-3" d="M155.46,137.44S145.62,306,249.54,307.37c112.88,1.5,101.11-169.93,101.11-169.93s-.64-78-98.47-78C162.5,59.48,155.46,137.44,155.46,137.44Z" transform="translate(-54.87 0)"/><path class="cls-4" d="M218.09,199.19a8.23,8.23,0,1,1-8.23-8.23A8.22,8.22,0,0,1,218.09,199.19Z" transform="translate(-54.87 0)"/><path class="cls-4" d="M298.84,199.19a8.23,8.23,0,1,1-8.23-8.23A8.22,8.22,0,0,1,298.84,199.19Z" transform="translate(-54.87 0)"/><polyline class="cls-3" points="187.9 215.09 187.9 227.69 199.7 227.69"/><path class="cls-4" d="M197,150.43s-21.93,3.42-20.46,14.07c0,0,.93,10.81,24.06,6.56,20.32-3.74,27.54-6.78,26.28-15.31C225.57,147,207.76,148.15,197,150.43Z" transform="translate(-54.87 0)"/><path class="cls-4" d="M303.37,150.43s21.93,3.42,20.46,14.07c0,0-.94,10.81-24.06,6.56-20.32-3.74-27.54-6.78-26.28-15.31C274.79,147,292.6,148.15,303.37,150.43Z" transform="translate(-54.87 0)"/><path class="cls-3" d="M217.92,244.34s24.89,12.71,60.72-.83" transform="translate(-54.87 0)"/><path class="cls-4" d="M296.94,65.36s-2.94,53,61.89,76.37C358.83,141.73,362,74.11,296.94,65.36Z" transform="translate(-54.87 0)"/><path class="cls-4" d="M311.26,103.53S282.38,84,230,110.46c-41.07,20.76-101.53,28.29-111.55-21.06C108,38,164.3-6.74,268.29,27.22c82.17,26.82,57.77,57,57.77,57Z" transform="translate(-54.87 0)"/><path class="cls-4" d="M345.56,100.08s6.86-52.95-62.29-96.94a20.4,20.4,0,0,0-19.39-1.28h0A20.41,20.41,0,0,0,254,29.27l10.55,22Z" transform="translate(-54.87 0)"/><path class="cls-4" d="M279.81,77.42s30.75-21.73,81,6.89A14.38,14.38,0,0,1,368,96h0a14.4,14.4,0,0,1-13.81,15.23l-17.19.67Z" transform="translate(-54.87 0)"/><path class="cls-5" d="M357.08,404l-104.43-38.4-107,39.85C103.89,420.34,71.79,458,55.39,500H444.61C429.11,458,398,419.77,357.08,404Z" transform="translate(-54.87 0)"/><path class="cls-3" d="M357.08,404l-48.93-18-54.42-5.81-48.9,3.21-59.22,22C103.89,420.34,71.79,458,55.39,500H444.61C429.11,458,398,419.77,357.08,404Z" transform="translate(-54.87 0)"/><path class="cls-1" d="M252.65,365.62l-88.6,33s25.5,43.3,89.06,42.32c30.94-.47,66.43-13.19,87.85-42.83Z" transform="translate(-54.87 0)"/><path class="cls-3" d="M213.44,380.22l-49.39,18.39s25.5,43.3,89.06,42.32c30.94-.47,66.43-13.19,87.85-42.83l-47.69-17.54" transform="translate(-54.87 0)"/></g></svg>