<svg id="Capa_1" data-name="Capa 1" xmlns="http://www.w3.org/2000/svg" viewBox="0 0 239.06 538.89"><defs><style>.cls-1{fill:#5b1d12;}.cls-2{fill:#ebbaa2;}.cls-3{fill:#edb8a3;}.cls-4{fill:#d5bab2;}.cls-5{fill:#d0d5e7;}.cls-6{fill:#9aa7c4;}.cls-7{fill:#9aa7c6;}.cls-8{fill:#162221;}.cls-9{fill:#aaafc7;}.cls-10{fill:#483f4f;}.cls-11{fill:#afb7cb;}.cls-12{fill:#fcf7c7;}.cls-13{fill:#072b3a;}.cls-14{fill:#9aa7c5;}.cls-15{fill:#1d2923;}.cls-16{fill:#a4abce;}.cls-17{fill:#413b55;}.cls-18{fill:#a7aec7;}.cls-19{fill:#f0b9a0;}.cls-20{fill:#f2b8a0;}.cls-21{fill:#d88e7c;}.cls-22{fill:#f7d7c8;}.cls-23{fill:#d98d7e;}.cls-24{fill:#9c4d3a;}.cls-25{fill:#9a4d38;}.cls-26{fill:#b56653;}.cls-27{fill:#e5a390;}.cls-28{fill:#f0b89f;}.cls-29{fill:#97abd5;}.cls-30{fill:#a4a9ce;}.cls-31{fill:#a5aeca;}.cls-32{fill:#296eaf;}.cls-33{fill:#efb89f;}.cls-34{fill:#9baad3;}.cls-35{fill:#a9aed1;}.cls-36{fill:#f0b9a1;}.cls-37{fill:#3e6ea0;}.cls-38{fill:#2b5e91;}.cls-39{fill:#dac8c9;}.cls-40{fill:#ddc5c4;}.cls-41{fill:#f8d7c8;}.cls-42{fill:#dac2bd;}.cls-43{fill:#a6adcd;}.cls-44{fill:#a6adc7;}.cls-45{fill:#eccec6;}.cls-46{fill:#b2b8cb;}.cls-47{fill:#161719;}.cls-48{fill:#161618;}.cls-49{fill:#1c1a17;}.cls-50{fill:#1a1b1a;}.cls-51{fill:#a1a9ce;}.cls-52{fill:#d7d2da;}.cls-53{fill:#5a2014;}.cls-54{fill:#3b221a;}.cls-55{fill:#5c2316;}.cls-56{fill:#f9ccb5;}.cls-57{fill:#502e22;}.cls-58{fill:#181210;}.cls-59{fill:#f8d5c8;}.cls-60{fill:#f5eadf;}.cls-61{fill:#f3e6e1;}.cls-62{fill:#f4ecde;}.cls-63{fill:#f7e5dd;}.cls-64{fill:#b08b84;}.cls-65{fill:#b18c80;}.cls-66{fill:#c68e79;}.cls-67{fill:#bf866d;}.cls-68{fill:#e69981;}.cls-69{fill:#e69e88;}.cls-70{fill:#d78f7e;}.cls-71{fill:#1c4f8f;}.cls-72{fill:#21528e;}.cls-73{fill:#e5af5e;}.cls-74{fill:#562f29;}.cls-75{fill:#1b1818;}</style></defs><title>avatar2</title><path class="cls-1" d="M314.09,240.82c-1.32,2.45-2.51,5.12-6.13,3.31l-1.3.77c-2.81,1.2-5.61,0-8.42,0l-1.27-.76c-1.08,3.21-3,1.76-4.56.66-3-2.12-.31-4,.45-5.88-2-2.33.72-3.29,1.64-4.09,5.54-4.79,16.67-2.26,19.95,4.34C314.74,239.75,314.93,240.43,314.09,240.82Z" transform="translate(-157.94 -136.02)"/><path class="cls-1" d="M306.8,226l.16,0a1.55,1.55,0,0,0,.07.23Z" transform="translate(-157.94 -136.02)"/><path class="cls-1" d="M306.87,225.87a4.83,4.83,0,0,1,.62-.42s0,.08,0,.12l-.32.3L307,226Z" transform="translate(-157.94 -136.02)"/><path class="cls-1" d="M307.92,220.6a4,4,0,0,1,.95-.7q-.06.43-.15.87A7.6,7.6,0,0,0,307.92,220.6Z" transform="translate(-157.94 -136.02)"/><path class="cls-1" d="M312,219.84l.24,0a1.58,1.58,0,0,1-.12.15A1.32,1.32,0,0,1,312,219.84Z" transform="translate(-157.94 -136.02)"/><path class="cls-1" d="M314.8,221.43l0,0a5,5,0,0,0,.05.53l-.35-.21-.1-.07a3.54,3.54,0,0,1,.4-.58l.31-.31Z" transform="translate(-157.94 -136.02)"/><path class="cls-1" d="M319.88,228.1a3.47,3.47,0,0,0-.73-.56,5.23,5.23,0,0,0,.12-.54A3.81,3.81,0,0,1,319.88,228.1Z" transform="translate(-157.94 -136.02)"/><path class="cls-1" d="M319.87,225l-.52,0a3.7,3.7,0,0,1,0-.47Z" transform="translate(-157.94 -136.02)"/><path class="cls-1" d="M339.11,193.26c.22-7.32-4.76-15.18-11.24-17.59,1.82-3.51,3.89-7.07,2-11.15-.6-1.28-1.57-3.09-3.29-2.35s.38,1.87.29,2.86.69,2.37-1.9,3.11c.75-8.73-5.23-14.33-8.9-21.11-5.53-10.23-15.51-8.43-24.28-10.28-3.16-.66-6.13-1.12-9.29-.23s.28,2.22-.14,3.51c-3.23-2-6.32-2.52-9.61-.28l4.09.47a5.63,5.63,0,0,0,2.42,1.7c-2.28-.75-3.94-.06-5.45-.8-3.83,0-7.39,1.26-11.06,2.2-2.5.65,2.13,3.1-1.14,2.62a19.21,19.21,0,0,0-5.46,0c-2.85.41-5.76.9-7.71,3.38.85,1.11,2.63-.11,2.93,1.82a21.88,21.88,0,0,0-14.18,3.74c-1.76,1.2-1.13,1.54-3.85,6.54-1.33,2.43-6.08,2.78-7.62,5.86-.62,1.25.14,3-1.95,3.83-4,1.65-6.78,4-2.08,8.75-2.82-.05-3.66-2.05-5.26-2.49-.65,2,2.57,3.77,1.3,4.29-3.85,1.57-1.86,4.47-2.1,6.69-1.15,10.42,1.42,20.45,3.57,30.52a23.84,23.84,0,0,0,1.8,11.28c1,3.92,1.46,8,2.79,11.83.76,2.13,1.57,4.23,2.14,6.41a19.07,19.07,0,0,1,.76,6c-.23,2.79,1.51,5,2.19,7.56,1.25,11,.93,22.41,9.1,31.38l10.39,9.52c.82.74,1.93,1.4.6,2.62-.69,1.35.22,1.83,1.23,2.24a6,6,0,0,1,2.65,1.32c8.39,8,18.44,10.22,29.75,9.37,5.85-.44,11-1.81,15.71-5.26,2.92-2.12,5.42-4.92,9-6a3.93,3.93,0,0,0,2.69-1.23c-2.62-2.14-1.58-3.59.91-4.76,1.26-1.29,2.49-2.61,3.79-3.86,6.29-6.09,11.37-12.82,12.1-22,.33-4.12.88-8.21,1.32-12.31a4.55,4.55,0,0,1,.11-1.11s0,0,0-.05c.48-2.21,2.21-4.06,2.09-6.44.05-.28.1-.55.14-.83s.1-.54.14-.81c1.17-6.93,2.13-13.9,3.75-20.74h0c.06-.27.12-.54.19-.8h0l.26-1c.47-3,1.92-6,1.05-9.17C337.27,212.39,338.83,202.9,339.11,193.26Zm-11.2,43c-1.36,11.05-2.31,22.16-3,33.27-.94,14.49-11.06,22.22-21.81,30.91-.26-5.62-.58-10.33-.66-15.05-.07-3.84-1.88-6.3-5.4-7.49-12.34-4.18-24.72-4.55-37.08-.06-3.5,1.27-5.25,3.7-5.28,7.55-.05,4.65-.44,9.3-.73,14.85-11.19-8.33-21-16.58-21.95-31.55-.73-11.44-1.94-22.83-2.14-34.32a24.12,24.12,0,0,1,4.43-14.94,6.36,6.36,0,0,0,1.19-5.45A17.91,17.91,0,0,1,239,199a415.71,415.71,0,0,0,46.16.46c1.26,0,2.67.54,3.77-.59L314,195.74c1.53-.19,2.88-.13,4,1.34,4,5.43,6.29,11.19,4.05,18-.05.63-.09,1.26-.13,1.89A23.48,23.48,0,0,1,327.91,236.25Z" transform="translate(-157.94 -136.02)"/><path class="cls-2" d="M328.14,262.91c.27-2.66.53-5.32.8-8,5.71-3.88,8.13-8.75,5.44-15.69-1.93-5,2.22-8.06,4.14-11.46-1.2,1.12-1.75,3.22-3.2,4.47-2.21,1.92-1.76-.08-1.62-1.38.74-3,.74-6.15,2.17-9,2.41-1.55,4.93-3.3,7.52-.59,2.43,2.55,3.41,5.5,1.64,9-2.81,5.61-5,11.32-5.38,17.81-.24,4.48-2.42,8.65-7.15,10.48A7.67,7.67,0,0,0,328.14,262.91Z" transform="translate(-157.94 -136.02)"/><path class="cls-3" d="M219.18,218.85q1.4,5.55,2.8,11.11c.24,1.54-.67,1.25-1.29.66-1.36-1.29-2-3.31-4.54-4a12.45,12.45,0,0,1,6.06,14c-1.78,6.84-.49,9.91,5.72,13.5.31,2.6.62,5.21.93,7.8-9.81-4.49-12.39-13.11-13.4-22.85-.28-2.69-1.87-5.27-3-7.82-2.88-6.28-1.07-9.74,5.7-10.88C218.54,220.26,218.83,219.36,219.18,218.85Z" transform="translate(-157.94 -136.02)"/><path class="cls-4" d="M276.83,140.22a7.27,7.27,0,0,1,5.39,3.87l-8.42-3Z" transform="translate(-157.94 -136.02)"/><path class="cls-5" d="M266.93,370.93c-.54,8.25-1.26,16.48-2,24.71q-1.53,17.53-3.14,35.06-1.9,21-3.84,42c-1,.07-2,.19-3,.21-6.48.14-12-3.31-18.09-4.85-5.76-1.47-11-4.89-16.39-7.43-4.76-2.22-9.17-7.39-15.46-3.7-4.5-14.31-6-29.21-8.82-43.89a22.2,22.2,0,0,0-.22,4.94q.93,11.88,2,23.76c.28,3.23-.44,4.74-4.16,3.33-2.5-.94-5-2.45-8.5-1.89,6.19,4.32,13.88,5.88,17.56,13.19-7.3-.3-13.92-2.42-20.73-3.21,4.93,3.39,11.17,3.67,16.12,7.49-4.83.86-9.34-.12-13.88,0l-.75-.12.53.13c-.7,0-1.4.09-2.1.19l23.7,5a15.33,15.33,0,0,1,2.2,9.93,2.31,2.31,0,0,1,.1.28c-3.2,3.54-8.18,3.84-12.1,6.07,2.34-.77,4.54-1.89,6.95-2.55,2-.54,4-1.33,5.43.68a5,5,0,0,1,0,5.69c-2.08,3.17-6.09,5.25-5.28,10,.06.35-.59.82-1.06,1-9.17,2.88-12.88,11.41-18.57,17.91-1.87,2.13-2.54,5.57-6.18,5.86,1.32-7.22-3.34-12.89-5.44-19.1-2.22-6.56-3.07-13.42-5.46-19.94a66.45,66.45,0,0,1-3.87-18.78c2.95.42,3.83,4.34,8.17,4.72L161.34,457c0-5.8-1.08-11.47-2.05-17.15.24,0,.49,0,.73-.08l4.62,2.5c.57-1.71-.51-2.44-1-3.42-.81-1.52-1.26-3.4.2-4.5s2.66.55,3.71,1.52c1.41,1.32,2.8,2.63,5.3,2.09-4.77-4-8.58-8.73-12.77-13.15,0-1.76-2.23-3.8-.54-5.08,2.14-1.61,3.11,1.56,4.8,2.21,2.15.84,3.68,3.06,7.49,3.38a30,30,0,0,1-3.11-2.61c-3.13-3.69-7.7-6.09-9.7-10.79l.09-12a54.15,54.15,0,0,0,1.52-11.08c.2-9,3.65-17.15,7.35-25.19,1.34-.93,1.91-3.17,4.13-2.66,2-2.88,3.35-6.47,7-7.69a5.06,5.06,0,0,1,.42-1,2.63,2.63,0,0,1,3.55-.62c.8-4,4.57-4,7.34-5.4h0a3.2,3.2,0,0,1,.48-.65,3.83,3.83,0,0,1,4.14,0l.16.2c2.23-1.75,4-4.48,7.41-3.75l0,0a2.1,2.1,0,0,1,2.35-.35l.06.06c.24-1.52,1.35-1.86,2.73-1.76,4.69.35,9.12-.15,12.93-3.32,1.08-.91,2.48-.81,3.83-.61l.05-.1c3.27-1.66,6.86-1.27,10.33-1.55a2.91,2.91,0,0,1,1.16.3l-.21.54c4.54,12.36,13.89,20.72,23.83,28.58,1.68,1.32,3.23,2.11,4.18-.47a4,4,0,0,0,.49,0C266.81,365.24,267.12,368.1,266.93,370.93Z" transform="translate(-157.94 -136.02)"/><path class="cls-5" d="M166.93,464.61c-2.51-2-4.67-4.38-5.59-7.63l9.3,10.61c-4.34-.38-5.22-4.3-8.17-4.72C164.7,461.57,165.48,464,166.93,464.61Z" transform="translate(-157.94 -136.02)"/><path class="cls-5" d="M172.82,437.94c-2.5.54-3.89-.77-5.3-2.09-1.05-1-2.2-2.66-3.71-1.52s-1,3-.2,4.5c.52,1,1.6,1.71,1,3.42l-4.62-2.5c-.24,0-.49.06-.73.08a1.88,1.88,0,0,1,.73-.4.7.7,0,0,1,.19-.06l.35,0c.66-.25,2,1,1.9-.15-.14-2.14-1.29-4.53,1.3-5.72s4,1.79,6,2.71a49.36,49.36,0,0,1-9-9.23c-.24-.32-.48-.64-.7-1s-.49-.67-.72-1a7.52,7.52,0,0,1-.52-1.91c-.21-1.57-1.13-3.47.77-4.46,1.48-.76,2.89.32,4,1.29.8.67,1.63,1.3,2.38,1.85-1.79-1.61-3.52-3.79-5.63-5.54a4.38,4.38,0,0,1-1.74-2.49,2.75,2.75,0,0,1,.36-1.8c2,4.7,6.57,7.1,9.7,10.79a30,30,0,0,0,3.11,2.61c-3.81-.32-5.34-2.54-7.49-3.38-1.69-.65-2.66-3.82-4.8-2.21-1.69,1.28.55,3.32.54,5.08C164.24,429.21,168.05,434,172.82,437.94Z" transform="translate(-157.94 -136.02)"/><path class="cls-5" d="M208.75,475.25a9.1,9.1,0,0,1-.68.83,2.31,2.31,0,0,0-.1-.28,15.33,15.33,0,0,0-2.2-9.93l-23.7-5c.7-.1,1.4-.16,2.1-.19a56.28,56.28,0,0,0,7.55,1.22c4.57.52,9.17.94,13.47,2.88l.51.23.66.34A10.12,10.12,0,0,1,208.75,475.25Z" transform="translate(-157.94 -136.02)"/><path class="cls-5" d="M263.88,363.29c-.95,2.58-2.5,1.79-4.18.47-9.94-7.86-19.29-16.22-23.83-28.58l.21-.54a4.39,4.39,0,0,1,1.91,2.52c3.72,9.18,10.84,15.61,17.87,22.12C258.18,361.43,260.67,363.29,263.88,363.29Z" transform="translate(-157.94 -136.02)"/><path class="cls-5" d="M265.67,363.1a8.59,8.59,0,0,1-1.3.17c2.44,2,2.75,4.83,2.56,7.66-.54,8.25-1.26,16.48-2,24.71q-1.53,17.53-3.14,35.06-1.9,21-3.84,42c-1,.07-2,.19-3,.21-6.48.14-12-3.31-18.09-4.85-5.76-1.47-11-4.89-16.39-7.43-4.76-2.22-9.17-7.39-15.46-3.7-4.5-14.31-6-29.21-8.82-43.89a22.2,22.2,0,0,0-.22,4.94q.93,11.88,2,23.76c.28,3.23-.44,4.74-4.16,3.33-2.5-.94-5-2.45-8.5-1.89,6.19,4.32,13.88,5.88,17.56,13.19-7.3-.3-13.92-2.42-20.73-3.21,4.93,3.39,11.17,3.67,16.12,7.49-4.83.86-9.34-.12-13.88,0,2.43.4,4.86,1,7.33,1.23.83.09,1.65.14,2.49.15,1.66,0,3.93.39,4.42-1.3.66-2.27-2-2.68-3.44-3.44a15.73,15.73,0,0,0-3.23-1.21c2.41.56,4.9,1,7.41,1.29,1.29.18,2.87.54,3.68-.76.95-1.53-.2-2.87-1.11-4-3.19-4.12-7.8-6.06-12.06-7.84a10.07,10.07,0,0,1,1.09.34c7.11,2.89,9.08,1.35,8.07-6.31-.06-.49-.21-1-.24-1.47-.23-3.82-.83-7.6-1.36-11.19.22,1.19.45,2.39.68,3.59,1.75,9.22,1.28,19,6.68,27.34a.75.75,0,0,1,.15,0h.11c5.42-.24,9.9,2.22,14.5,4.77a126.58,126.58,0,0,0,30.94,11.75c2.55.65,5.35,1.43,7.61-.62l.17-.16a6,6,0,0,0,.47-.52,43.25,43.25,0,0,0,1.72-10.79c.47-5.94,1.11-11.87,1.48-17.82.79-12.4,2.69-24.7,3.46-37.11.56-9.09,1.95-18.11,2.56-27.19C268.35,373.83,269.86,368,265.67,363.1Zm-81,90.67a40,40,0,0,0,5.14,1.78A18.41,18.41,0,0,1,184.69,453.77Z" transform="translate(-157.94 -136.02)"/><path class="cls-5" d="M206,605.65a27.81,27.81,0,0,0,1.06-7.33c1-17.64-2.31-35.1-2-52.68.08-4.64-3.79-3.17-5.79-4.57,2.35-1.43,4.58-3.05,6.91-4.53,7.64,1.09,14.77-1.47,21.84-3.51,6.85-2,14-3.15,20.42-6.5a4.76,4.76,0,0,1,4.35-.16c1.68,4.36.72,8.84,0,13.1a24.81,24.81,0,0,0,4.52,19.73c5.25,7.27,9.27,15.32,14.12,22.86,1.28,2,2.59,3.37,5,3.52a4.7,4.7,0,0,1,1.91,1.68c1.57,6,2.31,12.07-.4,18-5,1.79-10.17.93-15.25,1-12.42.24-24.85.12-37.27.06a111.9,111.9,0,0,0-14.87.77C208.81,607.12,207.13,607.15,206,605.65Z" transform="translate(-157.94 -136.02)"/><path class="cls-6" d="M321,334.84a.29.29,0,0,1,0,.09c-.95,6.9-5.25,11.89-9.61,16.89a78.84,78.84,0,0,1-13.65,12.23c-2.54,1.81-5,2.24-7-.6l-.18-.26,0-.06a3.46,3.46,0,0,1-.23-1.72h0a5.86,5.86,0,0,1,.25-1.16h0c.07-.24.15-.46.23-.7s.11-.74.15-1.11v0a16.6,16.6,0,0,0-10.09-16.65c-.32-.06-.63-.11-.94-.14a9.26,9.26,0,0,0-9.26,4.31,10,10,0,0,1-2.26,2.75,2.9,2.9,0,0,1-.29.19l-.41.26c-2.2,1.54-2.13,3.79-1.83,6.24.32,2.72,1.23,5.69-1.87,7.62a2.83,2.83,0,0,1-.11.31c-.95,2.58-2.5,1.79-4.18.47-9.94-7.86-19.29-16.22-23.83-28.58l.21-.54a40.19,40.19,0,0,1,4.77-9.57c.09-.41.17-.81.25-1.21,1.1-4,1.14-8.27,3.8-11.73,1.23-1.54.9-3.92,2.78-5.1,3,2.91,1.78,7.25,3.4,10.63h0a6.3,6.3,0,0,0,.4.72h0s0,0,0,0l.08.12c.07.22.13.44.21.65,2.79,8.37,9.58,12,17.2,15.62,11.24,5.31,20.22.07,29.45-4.58a12.4,12.4,0,0,0,7.26-11.1c.05-1.57-.18-3.33,1.48-4.36l.09-.06h0c2.2.93,1.36,2.62,1.07,4.18-.13.66,1,.05.36.11-.13,0-.21-.1-.16-.3,1-3.81-.6-8.26,2.79-11.49,2.48,3.19,3,7.19,4,10.86A105.86,105.86,0,0,0,320.05,332,4.15,4.15,0,0,1,321,334.84Z" transform="translate(-157.94 -136.02)"/><path class="cls-7" d="M205.74,536.86c-.36,4.21-3.45,4.19-6.52,4.21-7.45-.06-14.63-1.07-20.38-6.43s-5.7-5.75-1.6-13.95c6.32-7.43,11.39-15.9,18.74-22.47,1-.85,1.36-2.54,3-2.25,3.76.67,4.78-.15,2.46-3.67-.77-1.17.7-2.05,1.55-2.78,1.25-1.08,2.69-2,3.87-3.09a4.62,4.62,0,0,0,.7-5.58c-1-2-2.89-.62-4.43-.2-3.43.94-6.48,3.29-11,3.12,4.93-4.42,10.8-5.36,15.81-8,1.67-.24,2,1.11,2.11,2.16.35,3,2.67,4.86,4.09,7.24.89,4.23,3.06,8.16,2.85,12.64a8.37,8.37,0,0,1-.3,1.49c-.71,3-1.24,5.94-1.9,8.91-2.62,8.87-5.49,17.67-7.68,26.66A2.84,2.84,0,0,1,205.74,536.86Z" transform="translate(-157.94 -136.02)"/><path class="cls-8" d="M206,605.65l4,0c.45.53.82,1.25.41,1.8-4.11,5.48-2.25,11.72-2.21,17.67,0,6.71-2.9,12.87-3.14,19.54-.1,2.69-.49,5.07,1.11,7.57,2.08,3.26,1.39,7.14,1.05,10.69-.36,3.76-.81,7.38.8,10.93-2.29,1.5-4.83.91-7.3.91a148.82,148.82,0,0,1,.89-37.66c1-7.1-1.42-14.13.26-21.26A32.36,32.36,0,0,1,206,605.65Z" transform="translate(-157.94 -136.02)"/><path class="cls-9" d="M171.8,425.3c-3.81-.32-5.34-2.54-7.49-3.38-1.69-.65-2.66-3.82-4.8-2.21-1.69,1.28.55,3.32.54,5.08.26.72.5,1.43.7,2.15,1.23,4.15,1.52,8.29-.54,12.43l-.19.38c-.24,0-.49.06-.73.08-.8-8.7-2.2-17.4-.66-26.13q.17-.9.36-1.8c2,4.7,6.57,7.1,9.7,10.79A30,30,0,0,0,171.8,425.3Z" transform="translate(-157.94 -136.02)"/><path class="cls-10" d="M250.78,319.09c-2.84-3.56-2-8.06-3.1-12.06l1.27-1.62c.23,1.15,1,1.41,2,1.27,2.29,3.47,1.54,7.22,1,10.95A3.05,3.05,0,0,1,250.78,319.09Z" transform="translate(-157.94 -136.02)"/><path class="cls-11" d="M170.64,467.59c-4.34-.38-5.22-4.3-8.17-4.72h0c-.48-1.94-1.74-3.73-1.12-5.89Z" transform="translate(-157.94 -136.02)"/><path class="cls-12" d="M244.9,312.12c-1,4-1.77,8.08-3.8,11.74C241.05,319.52,240.45,315,244.9,312.12Z" transform="translate(-157.94 -136.02)"/><path class="cls-5" d="M291,362.9c1.74,1.37,3.44,2.44,5.63.65,9.76-8,19.57-15.87,23.53-28.6,4.92-.22,9.61,1.19,14.38,2,10.94,1.91,21.21,6,31.65,9.62,15,5.22,22.32,16.48,26.49,30.8,1.41,4.84,1.36,9.83,2.15,14.72.21,1.31.11,2.67,1.08,3.74,1.86,5.23.59,10.61.79,15.92-1.77,4.66-6.61,6.3-9.09,9.45,2.93-.74,4.12-6.61,9.17-4.23l-.06,4.75c-2.12,5.07-6.66,8-10.33,11.55.65-.33,1.17-1,1.89-1.39,3.64-2.06,5.83-1.21,5.37,2.73-.41,3.47,1.46,2.23,2.92,2.35.34,2.35.52,4.68-.73,6.86-.35,3.72-1.52,7.34-1.49,11.11-1.05,3.89-3.9,6.34-6.88,8.58,2-.22,2.89-4.61,5.89-1.65-1.59,7.63-2.89,15.33-5.39,22.75-.68,2-.26,4.22-1.13,6.2l-.93,1.05c-2.18,5.16-2.65,10.86-5.05,15.95-1.93,3.4-3.4,6.93-3.23,10.95-2.3.2-3.06-1.75-4.11-3.12-3-4-6-8-9.19-11.77-2.53-3-4.75-6.49-9.45-6.54a2.17,2.17,0,0,1-2.11-2.8c.75-3.23-1.22-5-3.39-6.59-2.43-1.83-2.45-4.12-1.46-6.67,1.07-2.79,3.28-2.23,5.45-1.89A81.43,81.43,0,0,1,366.68,483a36.29,36.29,0,0,1-9.48-4.27c-1.11-.75-3-1.14-2.16-3.24,1.38-1.1,3.13-1.08,4.73-1.39,4.46-.86,8.94-1.34,9.76-7.28.25-1.8,2.48-2.5,4-3.54,2.17-1.51,3.46-3.37.34-5.37-2.11-1.35-1.81-3.22-1.26-5.29,1.19-4.48.61-5.18-4-5.49-1.81-.12-3.68.18-5.36-.8.6-3,.6-3,5.72-5-3,.2-5.52,3.27-9,1.73-.71-1-.13-1.8.49-2.57a40.7,40.7,0,0,1,4.27-2.54c.94-.62,2.21-1.19,1.86-2.52s-1.76-1.15-2.87-1c-2.34.24-4.85,1.43-6.6-1.3.05-7.47,1.48-14.78,2.59-22.78-1.81,8.39-1.46,16.45-3.77,24.1-2.24,3.21-6.11,3.13-9.27,4.25-8.49,3-14.45,8.25-17.21,16.95a27.09,27.09,0,0,1-8.64,13c-2.13,1.38-3.94,3.29-6.47,4-5.81.38-11.68.39-16.95,3.45a2,2,0,0,1-1.29-1.1c-1.58-9.67-1.65-19.47-2.55-29.19-1.43-15.34-2.19-30.72-3.69-46.06-.91-9.39-1.48-18.83-2.23-28.24C287.41,368.37,287.5,364.87,291,362.9Z" transform="translate(-157.94 -136.02)"/><path class="cls-13" d="M208,673.89c-2.62-2.1-3.48-4-2.58-7.95,1.08-4.72,2.66-10.48-1.93-15-.55-.54-.53-1.91-.41-2.85a72.75,72.75,0,0,1,1.64-10.66,54,54,0,0,0,1.35-24.17c-.64-3.65,3.93-4.4,3.91-7.6,17.54-1.08,35.11-.24,52.66-.57l15.39-.27a4.86,4.86,0,0,1,2.55-1.29c20.7-.3,41.41-1.07,62.09.47,2.74.21,5.66-.86,8.25.89l.72.92c-1.59,3.21.2,6.26.9,9.13,2.24,9.1.79,18.42,2.26,27.56.65,4,.86,8.18,1.84,12.19l-1.07,19.17c-8.46,2.47-141.06-.35-141.52-.31C212,673.75,210,673.77,208,673.89Z" transform="translate(-157.94 -136.02)"/><path class="cls-5" d="M350.9,604.92c-11.07,1-22.16.09-33.23.2-12.57.13-25.14-.2-37.71-.33-1-6.69-.31-13.41-.32-20.11.12-2.58,1.38-4.72,2.72-6.83,5.85-9.24,11.38-18.69,17.27-27.9,1.93-3,2.15-6.12,1.62-9.53a54.9,54.9,0,0,1-.41-15.73c1.89-.72,3.61,0,5.25.78,13.05,5.94,27.17,8.15,40.91,11.69a18.94,18.94,0,0,1,3.82,1,3.72,3.72,0,0,1,1.8,2.64c-.8,7.31-.7,14.69-1.69,22q-.45,17.88-.88,35.76A14,14,0,0,0,350.9,604.92Z" transform="translate(-157.94 -136.02)"/><path class="cls-14" d="M352,540.78l-1-1.86c-1.95-1.62-2.49-3.93-2.69-6.23-.73-8.21-4.15-15.66-6.54-23.38-1.34-4.35-2.38-8.6-2.11-13.14A46.31,46.31,0,0,1,344.1,480a10.49,10.49,0,0,1,8.74-5.05,2.65,2.65,0,0,1,2.07,1.1l14.28,7.8-.15.52c-5.58-1.29-11.16-2.55-16.73-3.87-1.27-.3-2.89-1.19-3.19.81-.24,1.63-1.9,3.41,0,5.1,2.71,2.41,7.69,3.72,4.48,9.09-.07.11.62,1,.93.95,8.82-.59,10.56,7.72,15.2,12.26,3,3,5.33,6.72,7.95,10.12a13.35,13.35,0,0,1,1.25,2.15c.81,2.32,4.4,3.14,3.65,6.14a14.32,14.32,0,0,1-6.35,8.67c-2.9,1.8-5.89,3.73-9.43,4.24C361.88,541,357,542.81,352,540.78Z" transform="translate(-157.94 -136.02)"/><path class="cls-15" d="M356.62,654.72c-2.94-2.3-2.45-6.07-2.38-8.75.23-8.1-2.5-15.9-1.67-24.12.34-3.38-1.95-7.25-2-11,0-1.58-1.82-3.92,1.08-5C358.39,621.62,353.89,638.54,356.62,654.72Z" transform="translate(-157.94 -136.02)"/><path class="cls-16" d="M396.61,437c-1.65.87-2.84,2.79-5,2.37-.59-.82-.15-1.37.24-1.88,1.35-1.76,1.89-4.05.3-5.41s-3.05,1-4.52,1.78c-1.23.65-2,2.23-4.51,1.67,4.78-4.82,9.22-9.3,13.67-13.77A93.45,93.45,0,0,1,396.61,437Z" transform="translate(-157.94 -136.02)"/><path class="cls-17" d="M311.34,307.2c-.66,4.32-1.11,8.69-2.82,13.17-1.43-1.83-.43-3.91-1.24-5.54-2.2-1.48-1.5-3.79-1.68-5.85a4.15,4.15,0,0,1,1.56-3.2l2.85.05Z" transform="translate(-157.94 -136.02)"/><path class="cls-18" d="M396.82,417c-3.48-.43-5,2.73-7.52,4.14-1.63.92-3,2.39-5.73,3.26,4.13-5.33,8.87-8.75,13.17-12.62C396.76,413.51,396.79,415.25,396.82,417Z" transform="translate(-157.94 -136.02)"/><path class="cls-19" d="M321.91,217c0-.63.08-1.26.13-1.89,2.24-6.82-.06-12.58-4.05-18-1.08-1.47-2.43-1.53-4-1.34l-25.11,3.12c-1.1,1.13-2.51.54-3.77.59A415.71,415.71,0,0,1,239,199a17.91,17.91,0,0,0-3.54,15,6.36,6.36,0,0,1-1.19,5.45,24.12,24.12,0,0,0-4.43,14.94c.2,11.49,1.41,22.88,2.14,34.32.95,15,10.76,23.22,21.95,31.55.29-5.55.68-10.2.73-14.85,0-3.85,1.78-6.28,5.28-7.55,12.36-4.49,24.74-4.12,37.08.06,3.52,1.19,5.33,3.65,5.4,7.49.08,4.72.4,9.43.66,15.05,10.75-8.69,20.87-16.42,21.81-30.91.72-11.11,1.67-22.22,3-33.27A23.48,23.48,0,0,0,321.91,217Zm-7.82,23.84c-1.32,2.45-2.51,5.12-6.13,3.31l-1.3.77c-2.81,1.2-5.61,0-8.42,0l-1.27-.76c-1.08,3.21-3,1.76-4.56.66-3-2.12-.31-4,.45-5.88-2-2.33.72-3.29,1.64-4.09,5.54-4.79,16.67-2.26,19.95,4.34C314.74,239.75,314.93,240.43,314.09,240.82Zm5.79-12.72a3.47,3.47,0,0,0-.73-.56c-1.91-1.13-4.42-.22-6.28-1.49a4.32,4.32,0,0,1-.8-.23l-4.94.05L307,226a1.55,1.55,0,0,0,.07.23l-.23-.21c-4.85.59-9.69,1.26-14.55,1.73-1.23.13-3.38,1.08-3.33-1.37.05-2-.43-5,2.12-5.46,5.87-1,11.76-3.09,17.83-1l3.09-.06.24,0c1,.22,2.11,0,2.87.94l4.3,3.77.5.44C320,226.06,322,227.08,319.88,228.1Z" transform="translate(-157.94 -136.02)"/><path class="cls-19" d="M307.92,220.6a4,4,0,0,1,.95-.7q-.06.43-.15.87A7.6,7.6,0,0,0,307.92,220.6Z" transform="translate(-157.94 -136.02)"/><path class="cls-19" d="M312.2,219.89a1.58,1.58,0,0,1-.12.15,1.32,1.32,0,0,1-.12-.2Z" transform="translate(-157.94 -136.02)"/><path class="cls-19" d="M314.09,240.82c-1.32,2.45-2.51,5.12-6.13,3.31l-1.3.77c-2.81,1.2-5.61,0-8.42,0l-1.27-.76c-1.08,3.21-3,1.76-4.56.66-3-2.12-.31-4,.45-5.88-2-2.33.72-3.29,1.64-4.09,5.54-4.79,16.67-2.26,19.95,4.34C314.74,239.75,314.93,240.43,314.09,240.82Z" transform="translate(-157.94 -136.02)"/><path class="cls-19" d="M319.88,228.1a3.47,3.47,0,0,0-.73-.56,5.23,5.23,0,0,0,.12-.54A3.81,3.81,0,0,1,319.88,228.1Z" transform="translate(-157.94 -136.02)"/><path class="cls-19" d="M319.87,225l-.52,0a3.7,3.7,0,0,1,0-.47Z" transform="translate(-157.94 -136.02)"/><path class="cls-20" d="M297.92,284.08c1.75.32,2,1.72,1.84,3-.56,5.09-1.14,10.19-2,15.25-.4,2.38-11,7.53-13.12,6.68-1.22-.47-.92-1.62-1.09-2.52-.35-1.77-.58-3.56-.89-5.54-1.08.26-2.12.87-2.93.65-5.07-1.42-6.47,1.18-6.47,5.57,0,1.93-1.15,1.88-2.69,1.65-7.41-1.11-11.62-4.77-12.15-12.24-.33-4.59-3.72-9.75,1.24-14l.66.17a33,33,0,0,1,4.53,3.06c7.28,8.58,20.26,10.1,29.18-.27A8.57,8.57,0,0,1,297.92,284.08Z" transform="translate(-157.94 -136.02)"/><path class="cls-21" d="M307.16,305.78c-.13,1-.25,2.07-.38,3.1-.24,3.88-2.38,6.19-5.79,7.92a47.84,47.84,0,0,1-17.59,5c-9.09.81-18.18,1.11-27.24-.41-2.27-.37-4.14-1.15-5.07-3.42,0-3.76-.07-7.51-.1-11.27,2.55-.38,3.63,1.89,5.15,3.1a35.63,35.63,0,0,0,45.17-.54C303,307.82,304.32,305.4,307.16,305.78Z" transform="translate(-157.94 -136.02)"/><path class="cls-22" d="M312,219.84l.24,0a1.58,1.58,0,0,1-.12.15A1.32,1.32,0,0,1,312,219.84Z" transform="translate(-157.94 -136.02)"/><path class="cls-22" d="M314.8,221.43l0,0a5,5,0,0,0,.05.53l-.35-.21-.1-.07a3.54,3.54,0,0,1,.4-.58l.31-.31Z" transform="translate(-157.94 -136.02)"/><path class="cls-22" d="M319.87,225l-.52,0a3.7,3.7,0,0,1,0-.47Z" transform="translate(-157.94 -136.02)"/><path class="cls-23" d="M288.92,198.85c-2.47,2.34-5.79,1.42-8.52,1.59-13.29.82-26.62,1.53-39.91-.23-.54-.07-1-.8-1.49-1.22,1-2.83,3.07-3.51,5.9-3.18,7.23.85,14.53,1.27,21.73,2.38C274.07,199.34,281.48,199.17,288.92,198.85Z" transform="translate(-157.94 -136.02)"/><path class="cls-20" d="M259.67,282.65c12.32-6.63,24.77-6,37.31-.7,1,2.83-1.2,2.63-2.79,3-3.66-.1-7.18-1.17-10.78-1.71-6.27-.95-12.18.53-18.17,1.77-2.08.07-3.72-1-5.3-2.14Z" transform="translate(-157.94 -136.02)"/><path class="cls-24" d="M333.7,230.87c.42.29-.21,2.76,1.37.64s2.53-5.45,7.05-5.57c-5.84,4.6-8.54,9.26-5.65,16.34,2.22,5.42-2,11.52-7.53,12.65C330.57,246.92,331.1,238.69,333.7,230.87Z" transform="translate(-157.94 -136.02)"/><path class="cls-25" d="M227.93,254.08c-5.61.72-9.41-5.89-7.32-12.73,1.93-6.33.42-10.76-5.27-15.06,3.69-1.15,3.93,3.52,6.64,3.67l2.82,12.26c0,2.08.11,4.12,2,5.52A9.3,9.3,0,0,1,227.93,254.08Z" transform="translate(-157.94 -136.02)"/><path class="cls-26" d="M259.94,282.9l5,1.07c9.7.3,19.41.25,29.11,0,1.21-.36,3.1.27,3-2.05,1.23.31,1.23,1.15.94,2.13-.28,1.71-1.83,1.64-3,2.14a48.88,48.88,0,0,1-24.46,2.18,27.84,27.84,0,0,1-6.55-2.17A4.89,4.89,0,0,1,259.94,282.9Z" transform="translate(-157.94 -136.02)"/><path class="cls-27" d="M226.79,247.74c-3.7-.74-3.72-2.81-2-5.52C226.09,243.83,226.36,245.82,226.79,247.74Z" transform="translate(-157.94 -136.02)"/><path class="cls-28" d="M373.5,458.4c-2.34-1.63-4.91-1.7-7.65-1.21-4.53.81-9,2.27-13.56,2.66a87.13,87.13,0,0,1,17.45-6,6.59,6.59,0,0,0,2.88-1.31,3.3,3.3,0,0,0,1.1-3c-.24-2.81-2.31-3.26-4.71-3.21-1.87,0-3.74,0-5.61.09h0a19.88,19.88,0,0,0-6.18,1.14c-1.72.65-3.69,1.62-5.84.06,2.08-2.91,5.73-3.5,8.31-5.52A7.37,7.37,0,0,0,361,440.9a6.42,6.42,0,0,0,4-2,6.86,6.86,0,0,0,.44-1.33c.47-2-.4-2.82-1.9-3.11h0a9.52,9.52,0,0,0-2.3-.07c-.78.06-1.56.14-2.33.24h0c-1.22.17-2.41.4-3.59.68a49.33,49.33,0,0,0-12.81,5.2l0,0-.11.06c-1.29.72-2.57,1.49-3.79,2.32l0,0-.24.17c-3.72,2.56-6.91,5.74-8.4,10.35a50.17,50.17,0,0,1-5.26,11.46,41.82,41.82,0,0,1-5.22,6.74c-1.73,4.27.45,8.5.11,12.74-.16,2,.1,4.68-2.89,5-2.57.27-5.44.92-7.46-1.39s-1.32-4.61,0-6.91a14.34,14.34,0,0,1,3.41-3.54c1.5-1.28,3.23-2.48,2.45-4.91-3.12.93-6.46.67-9.71.9h0a14.12,14.12,0,0,0-7.31,2.26l-1.16-.17a4.27,4.27,0,0,0-.6-.45,3.65,3.65,0,0,0-3.1-.48l-.22.07h0a40.56,40.56,0,0,1-12.59,1.93h-.17a55.48,55.48,0,0,1-8.6-.74h-.07c-2.25-.37-4.49-.84-6.74-1.4h0l-.1,0-.23-.06s.07.06-.26,0-.37.06-.54.07h-.45a5.07,5.07,0,0,1-1.69-.38,0,0,0,0,1,0,0c-1.05-.4-2-1-3.07-1.44l-.31-.11c-1,.07-2,.19-3,.21-6.48.14-12-3.31-18.09-4.85-5.76-1.47-11-4.89-16.39-7.43-4.76-2.22-9.17-7.39-15.46-3.7a1.3,1.3,0,0,0-.1.15c-1.93,2.73-1,5.24.24,7.72.19.37.38.74.58,1.11a15.33,15.33,0,0,1,2.2,9.93,2.31,2.31,0,0,1,.1.28c1.27,3.51,1.74,7.42,5.05,9.89a11.85,11.85,0,0,0,5.74,2.37c3.65.62,7.5.72,10.67,3.07,16.18,8.34,32.5,16.41,48.44,25.18,5.91,1.95,11.42,4.86,17.16,7.19,1.92.78,3.76,2.15,6,1.09,7.9,3.28,15.75,6.79,24.17,8.53s16.84,4.73,25.6,5.52c-2.11-5.41-1.73-11.27-3.56-16.86-2.79-8.54-7.08-16.86-6.59-26.27-1.8-2.58-5.32-2.52-7.85-5.19,5.39-2.19,9.67-5.39,12-10.59a13.34,13.34,0,0,1,8-4.14,14,14,0,0,1,2.53-.64c3.17-.55,6.49-.38,9.44-1.88a6.7,6.7,0,0,0,3-2.44l0,0a2.91,2.91,0,0,0,.3-2,2.08,2.08,0,0,0-1.76-1.91,12.9,12.9,0,0,0,3.67-1.33c1.08-.54,2.16-1.18,3.24-1.78a3.57,3.57,0,0,0,2-2.27v0C375.54,460.49,374.91,459.39,373.5,458.4Zm-9.84,8.51.36.07a6.54,6.54,0,0,1-.76,0h-.08A1.41,1.41,0,0,1,363.66,466.91Zm-.81.4c0,.24-.05.16,0,0Z" transform="translate(-157.94 -136.02)"/><path class="cls-29" d="M269.69,385.1c-.73,9.26-1.51,18.53-2.27,27.79-1.22,14.9-2.15,29.82-3.56,44.7-.31,3.32-.55,6.65-.7,10v.05c-.07,1.66-.13,3.32-.15,5,0,.44,0,.87,0,1.31a2.12,2.12,0,0,1,.19.57h0l0,.11a.66.66,0,0,0,0,.14,2.14,2.14,0,0,1-.14.85c-2.47.54-4-.66-5-2.67-.05-.09-.1-.18-.14-.27q1.92-21,3.84-42,1.59-17.52,3.14-35.06c.72-8.23,1.44-16.46,2-24.71.19-2.83-.12-5.69-2.56-7.66L264,363c1.27-2.63.91-5.29.57-8.09s-1.25-6.37,3.36-7a3.24,3.24,0,0,1,.47.78c.56,1.38-.12,2.77-.4,4.16a5.08,5.08,0,0,0-.26.81,6.54,6.54,0,0,0,.36,4.54,27.88,27.88,0,0,1,2.24,7.91v0C271.17,372.37,270.19,378.72,269.69,385.1Z" transform="translate(-157.94 -136.02)"/><path class="cls-30" d="M198.27,460.61c-5-3.82-11.19-4.1-16.12-7.49,6.81.79,13.43,2.91,20.73,3.21-3.68-7.31-11.37-8.87-17.56-13.19,3.47-.56,6,.95,8.5,1.89,3.72,1.41,4.44-.1,4.16-3.33q-1-11.88-2-23.76a22.2,22.2,0,0,1,.22-4.94c2.81,14.68,4.32,29.58,8.82,43.89,0,.05,0,.09,0,.14.21,2.66.43,5.31.64,8,0,.29.05.59.07.88l-23.7-5c.7-.1,1.4-.16,2.1-.19h.22C188.93,460.49,193.44,461.47,198.27,460.61Z" transform="translate(-157.94 -136.02)"/><path class="cls-31" d="M172.82,437.94c-2.5.54-3.89-.77-5.3-2.09-1.05-1-2.2-2.66-3.71-1.52s-1,3-.2,4.5c.52,1,1.6,1.71,1,3.42l-4.62-2.5v-.32l0-13.46v-1.18C164.24,429.21,168.05,434,172.82,437.94Z" transform="translate(-157.94 -136.02)"/><path class="cls-32" d="M277.89,515.46c8.14,2.19,15.33,6.71,23.26,9.41.58,6.42,1.11,12.84,1.76,19.25.23,2.32-.7,4.11-1.85,6-6.82,11.14-13.56,22.33-20.32,33.49-.88,1.59-.63,4.43-3.82,3.42l-1.11-1.07a14.85,14.85,0,0,1-4.59-8.22c-.84-4.34-3.32-8-5.4-11.71-3-5.4-5.34-11.07-7.95-16.64a4.51,4.51,0,0,1-.74-2.36c1.13-7.81-.94-16,2.81-23.5,2.71-3.33,6.92-3.88,10.48-5.61C273,517.35,275.09,515.33,277.89,515.46Z" transform="translate(-157.94 -136.02)"/><path class="cls-33" d="M270.78,518.51,261,523.74a5,5,0,0,1-1.81,1c-2.39.05-3.8,2.67-6.3,2.41-1.75-.7-3.31.19-4.79.77-10.46,4.1-21,7.71-32.28,9-1.72.19-3.3,1.55-5,1.79s-4.13.83-5-1.87A141.29,141.29,0,0,1,214,507.78c2.56-2.56.64-6,1.85-8.89l.07-.16c2.62-5.27,6.67-8.19,12.74-7.85,4,1.15,7.46,3.57,10.83,5.81,9.33,6.21,18.57,12.55,28.21,18.31C269.08,515.8,270.81,516.45,270.78,518.51Z" transform="translate(-157.94 -136.02)"/><path class="cls-34" d="M252.86,527.18c1.85-1.24,3-3.79,5.84-3.18-1.63,6.74-1,13.72-2.12,20.51-.44,2.68.59,4.83,1.81,7,4.29,7.81,8.42,15.71,12.84,23.44a3.79,3.79,0,0,1,.82,2.79c.62,3,3.43,5,3.77,8.17-1.2,1.33-2.31,2.51-3.72.12-6.47-10.92-12.89-21.86-19.55-32.66a10.88,10.88,0,0,1-1.56-7.06C251.57,540,252.23,533.57,252.86,527.18Z" transform="translate(-157.94 -136.02)"/><path class="cls-35" d="M276.92,587c2.26,0,2.26-2.6,3.82-3.41-.05,7.07,1.16,14.19-.78,21.19l-1.95.06C277.39,598.92,279.14,592.84,276.92,587Z" transform="translate(-157.94 -136.02)"/><path class="cls-32" d="M267.15,352.05c.26-1.39.52-2.77.77-4.16,4-6.83,6.5-8.21,13.09-7.23a20.36,20.36,0,0,1,10.2,13.41c.6,2.29,1.07,4.53-.52,6.64-4.51,7.71-2,16-1.39,23.87,1,12.7,1.57,25.45,3.09,38.12,1.77,14.79,2,29.71,3.57,44.52.66,6.28-.27,6.75-6.45,8.73-8.78,2.81-16.94,1.2-25.21-1.5-2.1-1.66-1.39-3.93-1.21-6q1.88-22.29,3.62-44.61c1.07-13.85,2-27.72,3.54-41.55.82-7.44,1.65-15.22-2.11-22.43A12.8,12.8,0,0,1,267.15,352.05Z" transform="translate(-157.94 -136.02)"/><path class="cls-36" d="M251.09,318c2.08,2.51,5.17,2.17,7.83,2.36,14.33,1,28.66,1.95,42.11-5.12a12.23,12.23,0,0,0,5.75-6.31q.24,3,.5,5.95c.58,6.58-1.27,12.56-6.91,15.95-6.33,3.82-13.29,6.89-20.69,8-8.32,1.24-24.9-8.63-28.27-16.31a14.33,14.33,0,0,1-.63-3.39C250.88,318.71,251,318.33,251.09,318Z" transform="translate(-157.94 -136.02)"/><path class="cls-37" d="M264.91,473.84c8.92,3.93,18,3.52,27.08.83,1.69-.49,3-1.32,3-3.43-.11-4.11,0-8.25-.23-12.35-.47-6.91-1.54-13.8-1.72-20.71-.35-13.88-3.5-27.47-3.94-41.35-.3-9.39-1.35-18.76-1.62-28.16-.09-3.14.59-6.57,3.54-8.78.28-.48.58-.47.89,0l-.84,3c-4.21,8.05-1,16.36-.56,24.47,1.12,19.37,3.09,38.69,4.44,58.05.71,10.07,2.32,20.08,1.87,30.22a6.63,6.63,0,0,0-1.48.13,56.49,56.49,0,0,1-32.23-.17,3.52,3.52,0,0,0-.27-.63C263.19,474,264.34,474.45,264.91,473.84Z" transform="translate(-157.94 -136.02)"/><path class="cls-38" d="M291.88,359.85l-.89,0c-.09-8-2.72-14.53-10.58-18-.47-.21-.85-.46-.32-.93a2.64,2.64,0,0,1,.93-.34C288.44,342.88,294.21,353.07,291.88,359.85Z" transform="translate(-157.94 -136.02)"/><path class="cls-39" d="M229.05,491.86c-5.73-.33-9.24,3.59-13.09,6.87.33-4.54-2.17-8.45-2.84-12.76,3.69.62,7.36,1.35,11.06,1.83,2.37.3,4.49.83,5.87,3C230,491.36,229.34,491.45,229.05,491.86Z" transform="translate(-157.94 -136.02)"/><path class="cls-39" d="M215.89,498.89a43.9,43.9,0,0,0,.56,5.75c.51,2.23-.46,3-2.41,3.14A22.3,22.3,0,0,1,215.89,498.89Z" transform="translate(-157.94 -136.02)"/><path class="cls-40" d="M352.93,475.87a15.12,15.12,0,0,1,7.51-2c1.5-.05,3.06.06,4.16-1.22s3.34-2.12,2.71-3.79c-.73-1.91-2.84-1-4.35-.47s-3,.55-3.1-1.19c-.15-2.15,1.93-1.37,2.9-1.25,3.36.42,6.14-1.18,9.09-2.21,1.28-.45,2.61-1.23,2.6-2.68,0-1.62-1.8-1.72-2.9-2.33-3.32-1.81-6.45.23-9.62.72s-6.42,1.63-9.67,2.29c-1.22.26-2.86.42-3.18-1.44s.84-2.12,2.35-2.44c6.38-1.38,12.25-4.55,18.82-5.31a2.67,2.67,0,0,0,2.58-3.1,2.74,2.74,0,0,0-3.15-2.51c-3.13.05-6.22-.33-9.31,1.07a28.57,28.57,0,0,1-7.68,1.78c-1.33.19-3.18.6-3.64-1.55-.38-1.79,1.24-1.92,2.23-2.73,2.87-2.37,6.37-3.23,9.67-4.6l-1.05,2c-.48,2-2.68,1.76-4,3.17,2.46,1,4.71-2.28,6.95-.19,2.33,0,4.67-.07,7,0,4.45.21,6,2.48,4.2,6.53-1.18,2.61-1.13,3.83,1.68,5.45,3.34,1.91,1.18,5-.81,6.09-3,1.65-5.19,3.06-5.28,6.91-.05,1.89-2.11,2.74-4,3.24A54.25,54.25,0,0,1,354.91,476Z" transform="translate(-157.94 -136.02)"/><path class="cls-41" d="M320,471.88c-.88,5.43,2.17,10.78.3,16.26-.24.7.17,1.58-.64,2.21-1.23.94-9.88.73-11.09-.5-2.86-2.92-2.6-6.05-.7-9.48,1.73-3.14,5.92-3.84,7.06-7.45-.55-.36-.55-.73,0-1.09l5-3.94C321.15,469.2,320.75,470.54,320,471.88Z" transform="translate(-157.94 -136.02)"/><path class="cls-42" d="M320,471.88l-.06-4c6.24-4.34,7.69-11.6,10.75-17.85,3.26-6.64,8.87-9.89,15.46-12.37,2.92-1.1,6-1.59,8.83-2.86a3.48,3.48,0,0,1,3.06-1,15.13,15.13,0,0,0,5.38-.56c1.91-.62,4.36-1,5.11,1.38.82,2.6-1.21,3.79-3.54,4.31,0-2.19-.5-4.36-3.23-3.92-12.38,2-23.46,6.54-30.57,17.6a29.28,29.28,0,0,0-4,9.55C326.24,466.69,323.22,469.26,320,471.88Z" transform="translate(-157.94 -136.02)"/><path class="cls-43" d="M362.86,445.83c-2.17-.34-3.54,1.67-5.47,1.89-1.35.15-3.36.89-3.89-.82s1.2-2.46,2.65-2.93c1.24-.41,2.5-.75,3.75-1.12,3.93,0,7.17-3.06,11.65-2.63C369.07,443.19,365.24,443.42,362.86,445.83Z" transform="translate(-157.94 -136.02)"/><path class="cls-44" d="M358,433.79c-.75,1.17-1.92,1-3.06,1l4.29-24.8.7.05Q359,421.93,358,433.79Z" transform="translate(-157.94 -136.02)"/><path class="cls-45" d="M314.91,471.83c0,.36,0,.72,0,1.09-5.24,3.44-11.52.69-17,2.89C302.57,470.08,309.06,472.31,314.91,471.83Z" transform="translate(-157.94 -136.02)"/><path class="cls-46" d="M393.87,455.85a6.69,6.69,0,0,1-1.13,5.06l-7.86,5.77-.82-.8Z" transform="translate(-157.94 -136.02)"/><path class="cls-47" d="M325.88,609.79c5.15,0,10.3.13,15.44,0,3.48-.11,4.89,1.35,4.63,4.74-.13,1.66,0,3.33,0,5,0,10.17-.13,10.72-10.33,11.17-8.74.38-17.55.76-26.28-.82-2.71-.49-4.19-1.74-4.34-4.49a4.17,4.17,0,0,1,0-.5c.34-16.76-2.84-15,13.95-15.05Z" transform="translate(-157.94 -136.02)"/><path class="cls-48" d="M231.57,629.79c-4.4.49-9.58-.74-14.68.78-2.39.71-3.86-.6-3.88-3.15,0-4.83-.13-9.67.05-14.49.09-2.41,1.43-4.3,4.14-3.85,9.11,1.52,18.26.48,27.38.62,3.93.06,5.56,1.57,5.37,5.29-.17,3.42-.71,6.74-.26,10.27.39,3-2.36,4.5-5.42,4.52C240.28,629.81,236.28,629.79,231.57,629.79Z" transform="translate(-157.94 -136.02)"/><path class="cls-49" d="M277,632.82c-6.28.27-12.31-.25-17.62-4.23-1.42-1.08-2.62-1.92-2.41-3.89a14.12,14.12,0,0,0-2-9c-1.52-2.57-.22-3.55,2.34-3.88,3.44-.45,6.85-1,9.3-4,1.07-1.29,2.73-.92,4.21-1,4.78-.3,9.61.55,14.37-.54,2.06-.47,2.91,1.1,3.8,2.53a.76.76,0,0,1-.36,1.28,61.43,61.43,0,0,0-14.33-.8c-5.49.49-7.57,2.71-7.86,8.27-.07,1.32-.07,2.65,0,4,.23,7,2.06,8.6,8.95,9,3.63.18,7.64-1.44,10.82,1.72C283.22,634.24,280.08,633.25,277,632.82Z" transform="translate(-157.94 -136.02)"/><path class="cls-50" d="M288.94,609.81l0-1c1.09.33,2.28,1.13,3.27.92,6.48-1.32,6.31,3.12,6.75,7.33.38,3.61-1,7.11-.21,10.79.45,2.17-1.28,3.33-3.56,2.52-1.86-.65-3.54-.85-5,.71-3.93,4.11-8.53,3.18-13.19,1.75,3-.48,6.14.92,9-1C292.54,625.27,290.88,617.56,288.94,609.81Z" transform="translate(-157.94 -136.02)"/><path class="cls-51" d="M287.35,583.89c2.14.38,3.9,1.8,4.11,3.68a3.61,3.61,0,0,1-3.68,3.79,3.44,3.44,0,0,1-3.73-3.21C283.86,585.82,285.21,584.54,287.35,583.89Z" transform="translate(-157.94 -136.02)"/><path class="cls-52" d="M340.77,495.79c-3.25-1.11-8.06-1.58-8.74-4.66s4.54-3,6.72-4.85,4.16-4.17,6.22-6.27C343.63,485.29,341.39,490.32,340.77,495.79Z" transform="translate(-157.94 -136.02)"/><path class="cls-53" d="M237.71,228.18c2.79-6.24,7.1-8.73,12.71-9.08,5.31-.33,10.53.8,15.79,1.38,3.88.42,3.9,3.27,3.71,5.77-.27,3.45-3.15,1.48-4.64,1.38C256.31,227.05,247.37,224.41,237.71,228.18Z" transform="translate(-157.94 -136.02)"/><path class="cls-54" d="M258.89,245c-3.3,1.67-6.59.75-9.89,0-1.82-.5-2.41-2.06-2.78-3.59-.52-2.16-1.88-1.68-3.3-1.35-.23-.34-.76-.8-.67-1,3.15-7.08,15.94-8.86,20.89-2.91.52.61,1.78,1.47-.09,2.06-1.42-.22-2.51-1.69-4.12-1.1C262.93,239.35,262.92,241.37,258.89,245Z" transform="translate(-157.94 -136.02)"/><path class="cls-1" d="M319.88,228.1a3.81,3.81,0,0,0-.61-1.1,5.23,5.23,0,0,1-.12.54c-1.91-1.13-4.42-.22-6.28-1.49a4.32,4.32,0,0,1-.8-.23l-4.94.05.32-.3s0-.08,0-.12a4.83,4.83,0,0,0-.62.42l.09.15-.16,0c-4.85.59-9.69,1.26-14.55,1.73-1.23.13-3.38,1.08-3.33-1.37.05-2-.43-5,2.12-5.46,5.87-1,11.76-3.09,17.83-1a4,4,0,0,0-.95.7,7.6,7.6,0,0,1,.8.17q.09-.44.15-.87l3.09-.06a1.32,1.32,0,0,0,.12.2,1.58,1.58,0,0,0,.12-.15c1,.22,2.11,0,2.87.94l-.31.31a3.54,3.54,0,0,0-.4.58l.1.07.35.21a5,5,0,0,1-.05-.53l0,0,.27-.6,4.3,3.77a3.7,3.7,0,0,0,0,.47l.52,0C320,226.06,322,227.08,319.88,228.1Z" transform="translate(-157.94 -136.02)"/><path class="cls-55" d="M306.87,225.87a4.83,4.83,0,0,1,.62-.42s0,.08,0,.12l-.32.3L307,226Z" transform="translate(-157.94 -136.02)"/><path class="cls-55" d="M308.87,219.9q-.06.43-.15.87a7.6,7.6,0,0,0-.8-.17A4,4,0,0,1,308.87,219.9Z" transform="translate(-157.94 -136.02)"/><path class="cls-56" d="M287,267.86c-6.63,2.56-8.05,1.69-8.05-5q0-12.48.05-25c0-.31.17-.63,1.28-1.14.56,4.11,1.44,8.2,1.59,12.33.22,6.13,2.53,11.5,5.1,16.86A1.26,1.26,0,0,1,287,267.86Z" transform="translate(-157.94 -136.02)"/><path class="cls-57" d="M314.09,240.82c-2-.1-3.08-1.68-4.48-2.7s-2.88-1.22-4.27-.29l-.22.14-.3.24c-2.57-.67-5.09-1.29-5.08,2.79,0,2.07-1.45,2.26-3,2.3h-.06c-1.52-.43-1.87-1.72-2-3s-.59-1.73-1.81-1.38c-2-2.33.72-3.29,1.64-4.09,5.54-4.79,16.67-2.26,19.95,4.34C314.74,239.75,314.93,240.43,314.09,240.82Z" transform="translate(-157.94 -136.02)"/><path class="cls-58" d="M308,244.13l-1.3.77c-2.81,1.2-5.61,0-8.42,0l-1.27-.76a.78.78,0,0,1-.25-.84s0,0,0-.05c.47-1.09,3.11-.8,1.87-3-1.08-2,.37-3,1.75-3.87,2-1.21,3.27.18,4.45,1.57a5.07,5.07,0,0,0,.54-.09c1.54-.31,3.23-.94,4.15,1S310.25,242.86,308,244.13Z" transform="translate(-157.94 -136.02)"/><path class="cls-59" d="M306.87,225.87a4.83,4.83,0,0,1,.62-.42s0,.08,0,.12l-.32.3L307,226Z" transform="translate(-157.94 -136.02)"/><path class="cls-59" d="M319.88,228.1a3.47,3.47,0,0,0-.73-.56,5.23,5.23,0,0,0,.12-.54A3.81,3.81,0,0,1,319.88,228.1Z" transform="translate(-157.94 -136.02)"/><path class="cls-60" d="M258.89,245c.91-1.55,2.12-3,2-4.92-.05-.65.71-2.34-1.25-1.42-1.47.69-2.61.29-3.12-1.23a2.12,2.12,0,0,1,.45-1.76c1.22-1.27,2.5-.23,3.57.32a13.31,13.31,0,0,1,2.52,2.2c.39,2,4.12,3.18,1.75,5.71C263.34,245.44,261.32,247.19,258.89,245Z" transform="translate(-157.94 -136.02)"/><path class="cls-61" d="M314.09,240.82c-1.32,2.45-2.51,5.12-6.13,3.31,2.76-3.94.9-5.53-2.84-6.16l-.32-.05c0-2.08.63-3.16,3-2.14C310.33,236.91,312.73,238.2,314.09,240.82Z" transform="translate(-157.94 -136.02)"/><path class="cls-62" d="M297,244.14c-1.08,3.21-3,1.76-4.56.66-3-2.12-.31-4,.45-5.88l2.94-3.36c.16,3-1,5.64.93,7.69a.09.09,0,0,0,0,.05A3.49,3.49,0,0,0,297,244.14Z" transform="translate(-157.94 -136.02)"/><path class="cls-63" d="M242.92,240A6.8,6.8,0,0,1,247,236.9c-.16,3,.27,5.73,2,8C244.3,245.28,242.52,243.83,242.92,240Z" transform="translate(-157.94 -136.02)"/><path class="cls-64" d="M315.07,220.83l-.27.6,0,0a3,3,0,0,0-.3.32l-.1-.07a3.54,3.54,0,0,1,.4-.58Z" transform="translate(-157.94 -136.02)"/><path class="cls-1" d="M306.87,225.87a4.83,4.83,0,0,1,.62-.42s0,.08,0,.12l-.32.3Z" transform="translate(-157.94 -136.02)"/><path class="cls-1" d="M307.92,220.6a4,4,0,0,1,.95-.7q-.06.43-.15.87A7.6,7.6,0,0,0,307.92,220.6Z" transform="translate(-157.94 -136.02)"/><path class="cls-1" d="M312.2,219.89a1.58,1.58,0,0,1-.12.15,1.32,1.32,0,0,1-.12-.2Z" transform="translate(-157.94 -136.02)"/><path class="cls-1" d="M314.76,221.47a5,5,0,0,0,.05.53l-.35-.21A3,3,0,0,1,314.76,221.47Z" transform="translate(-157.94 -136.02)"/><path class="cls-1" d="M319.88,228.1a3.47,3.47,0,0,0-.73-.56,5.23,5.23,0,0,0,.12-.54A3.81,3.81,0,0,1,319.88,228.1Z" transform="translate(-157.94 -136.02)"/><path class="cls-1" d="M319.87,225l-.52,0a3.7,3.7,0,0,1,0-.47Z" transform="translate(-157.94 -136.02)"/><path class="cls-65" d="M315.07,220.83l-.27.6,0,0a3,3,0,0,0-.3.32l-.1-.07a3.54,3.54,0,0,1,.4-.58Z" transform="translate(-157.94 -136.02)"/><path class="cls-66" d="M287,267.86l0-1.88c2.89.48,2.29,2.74,1.63,4.21-1.23,2.75-3.69,1.78-6,1.48.73-2.34,2.46-1.57,3.82-1.8S287.92,268.85,287,267.86Z" transform="translate(-157.94 -136.02)"/><path class="cls-67" d="M276.45,271.61c-6.85.72-7.42.15-5.1-5.57C268.67,272.12,275.35,268.93,276.45,271.61Z" transform="translate(-157.94 -136.02)"/><path class="cls-57" d="M298.25,244.9c2.8-2.39,5.61.82,8.41,0C303.86,246,301.05,246.75,298.25,244.9Z" transform="translate(-157.94 -136.02)"/><path class="cls-68" d="M263.93,286.23c10.34,2,20.68,1,31,0-4,5.88-9.66,7.65-16.5,7.78C271.93,294.13,267.74,290.74,263.93,286.23Z" transform="translate(-157.94 -136.02)"/><path class="cls-69" d="M294,284a58.33,58.33,0,0,1-29.11,0C274.62,280.19,284.33,281.43,294,284Z" transform="translate(-157.94 -136.02)"/><path class="cls-70" d="M229.05,491.86l1-1.08c7.1,2.29,13.33,6.41,20,9.67,8.6,4.21,17,8.78,25.51,13.24a17.3,17.3,0,0,1,2.36,1.77c-2.18,1.45-4.23,3.21-7.11,3Z" transform="translate(-157.94 -136.02)"/><path class="cls-71" d="M264.91,473.84l-2.1,1.13c-1.52-.15-1.83-1.11-1.72-2.45q2.22-26.34,4.42-52.67c1.41-16.88,3-33.75,4.08-50.66.21-3.44-1.7-7-2.84-10.5-.77-2.33-1.12-4.51.4-6.64,5.59,14.48,5.25,29.22,3.18,44.39-1.26,9.29-1.74,18.79-2.29,28.21-.89,14.87-1.79,29.73-3.91,44.48C263.91,470.71,263.47,472.47,264.91,473.84Z" transform="translate(-157.94 -136.02)"/><path class="cls-72" d="M272.05,577.77c-5.05-8.75-10-17.52-15.17-26.22a11.37,11.37,0,0,1-1.47-8c.75-5.06,1-10.21,1.32-15.32.1-1.77.41-3.23,2-4.21l2.26-.26c-4.85,14.77-2.4,28.42,5.77,41.48C269.11,569,272.37,572.72,272.05,577.77Z" transform="translate(-157.94 -136.02)"/><path class="cls-73" d="M288.94,609.81c5.33,7.7,4,17.72-3,22.06-4,0-7.95,0-11.92,0a13.5,13.5,0,0,1-3.93-.34c-4.24-1.38-6.13-7.09-5.06-15.78.53-4.24,2.47-7.67,7.42-7.6C278,608.2,283.71,606.79,288.94,609.81Z" transform="translate(-157.94 -136.02)"/><path class="cls-74" d="M314.81,222l-.35-.21-.1-.07a3.54,3.54,0,0,1,.4-.58,1.82,1.82,0,0,0,0,.33A5,5,0,0,0,314.81,222Z" transform="translate(-157.94 -136.02)"/><path class="cls-75" d="M278.55,611.68c2,0,4-.06,6,0,2.89.11,4.27,2,4.2,4.57-.08,3-2.68,1.38-4.2,1.73-2.2.51-6.2-1.11-6.17,1.86s4,1.29,6.22,1.79c1.51.34,4-1.18,4.17,1.84.12,2.39-1.08,4.44-3.51,4.75a54.57,54.57,0,0,1-13.87,0,3.85,3.85,0,0,1-3.1-2.91,7.17,7.17,0,0,1-.32-1.95C267.55,611.31,268.09,611.3,278.55,611.68Z" transform="translate(-157.94 -136.02)"/></svg>