<svg id="Capa_1" data-name="Capa 1" xmlns="http://www.w3.org/2000/svg" viewBox="0 0 399.63 448.09"><defs><style>.cls-1{fill:none;}.cls-2{fill:#fff;}.cls-3{fill:#cdcccc;}</style></defs><title>css</title><polygon class="cls-1" points="296.24 232.88 200.32 233.06 200.32 363.01 291.5 335.21 296.24 232.88"/><polygon class="cls-1" points="200.32 78.33 200.32 80.39 204.99 78.33 200.32 78.33"/><polygon class="cls-2" points="399.63 0 200.32 0 200.32 78.33 204.99 78.33 200.32 80.39 200.32 233.06 296.24 232.88 291.5 335.21 200.32 363.01 200.32 447.94 363.76 399.56 382.75 159.03 201.82 159.56 392.24 75.31 399.63 0"/><polygon class="cls-3" points="16.36 161.41 21.43 233.41 200.32 233.06 200.32 80.39 16.36 161.41"/><polygon class="cls-3" points="199.81 363.17 111.63 339.43 109.52 280.89 25.66 280.54 36.2 397.98 199.81 448.09 200.32 447.94 200.32 363.01 199.81 363.17"/><polygon class="cls-3" points="0 0 9.82 78.33 200.32 78.33 200.32 0 0 0"/></svg>